<svg xmlns="http://www.w3.org/2000/svg" version="1.1" xmlns:xlink="http://www.w3.org/1999/xlink" xmlns:svgjs="http://svgjs.dev/svgjs" width="1000" height="535" viewBox="0 0 1000 535"><g transform="matrix(1,0,0,1,-0.6060606060606233,-0.4958553997990407)"><svg viewBox="0 0 396 212" data-background-color="#ff5858" preserveAspectRatio="xMidYMid meet" height="535" width="1000" xmlns="http://www.w3.org/2000/svg" xmlns:xlink="http://www.w3.org/1999/xlink"><g id="tight-bounds" transform="matrix(1,0,0,1,0.2400000000000091,0.19716930560684887)"><svg viewBox="0 0 395.52 211.60634219951953" height="211.60634219951953" width="395.52"><g><svg viewBox="0 0 395.52 211.60634219951953" height="211.60634219951953" width="395.52"><g transform="matrix(1,0,0,1,0,126.31345920868799)"><svg viewBox="0 0 395.52 85.29288299083156" height="85.29288299083156" width="395.52"><g><svg viewBox="0 0 395.52 85.29288299083156" height="85.29288299083156" width="395.52"><g><svg viewBox="0 0 395.52 50.04928876359243" height="50.04928876359243" width="395.52"><g transform="matrix(1,0,0,1,0,0)"><svg width="395.52" viewBox="0.49 -37.7 303.08 38.36000000000001" height="50.04928876359243" data-palette-color="#ffffff"><path d="M9.11 0L9.11-6.69 12.94-6.69 12.94-30.54 8.45-30.54 8.45-25.76 0.49-25.76 0.49-37.01 34.16-37.01 34.16-25.76 26.15-25.76 26.15-30.54 21.04-30.54 21.04-6.69 24.95-6.69 24.95 0 9.11 0ZM37.67-29.64L37.67-37.01 67.11-37.01 67.11-24.39 59.15-24.39 59.15-29.64 49.66-29.64 49.66-22.34 57-22.34 57-15.26 49.66-15.26 49.66-6.69 59.15-6.69 59.15-13.26 67.11-13.26 67.11 0 37.67 0 37.67-6.69 41.55-6.69 41.55-29.64 37.67-29.64ZM103.14-25.76L95.6-25.76Q94.23-27.71 93.13-28.53 92.04-29.35 90.77-29.7 89.5-30.05 88.11-30.05L88.11-30.05Q86.05-30.05 84.3-29.14 82.54-28.22 81.26-26.65 79.98-25.07 79.24-22.99 78.51-20.9 78.51-18.55L78.51-18.55Q78.51-16.19 79.23-14.1 79.95-12.01 81.22-10.45 82.49-8.89 84.25-7.97 86.01-7.06 88.11-7.06L88.11-7.06Q89.57-7.06 90.84-7.53 92.11-8.01 93.15-8.79 94.18-9.57 94.97-10.58 95.75-11.6 96.19-12.7L96.19-12.7 104.05-10.5Q103.29-8.11 101.83-6.07 100.36-4.03 98.3-2.54 96.24-1.05 93.66-0.2 91.08 0.66 88.11 0.66L88.11 0.66Q85.59 0.66 83.3-0.02 81-0.71 79.01-1.95 77.02-3.2 75.4-4.96 73.77-6.71 72.63-8.85 71.48-10.99 70.84-13.44 70.21-15.89 70.21-18.55L70.21-18.55Q70.21-22.53 71.6-26.01 72.99-29.49 75.41-32.09 77.83-34.69 81.09-36.19 84.35-37.7 88.11-37.7L88.11-37.7Q91.11-37.7 93.16-36.95 95.21-36.21 97.68-34.01L97.68-34.01 103.14-34.01 103.14-25.76ZM134.07-30.3L134.07-37.01 149.94-37.01 149.94-30.3 146.04-30.3 146.04-6.69 149.94-6.69 149.94 0 134.07 0 134.07-6.69 137.93-6.69 137.93-16.16 121.23-16.16 121.23-6.69 125.14-6.69 125.14 0 109.29 0 109.29-6.69 113.13-6.69 113.13-30.3 109.29-30.3 109.29-37.01 125.14-37.01 125.14-30.3 121.23-30.3 121.23-22.61 137.93-22.61 137.93-30.3 134.07-30.3ZM171.79 0L171.79-6.69 175.62-6.69 175.62-30.54 171.13-30.54 171.13-25.76 163.17-25.76 163.17-37.01 196.84-37.01 196.84-25.76 188.83-25.76 188.83-30.54 183.73-30.54 183.73-6.69 187.63-6.69 187.63 0 171.79 0ZM216.95 0L216.95-6.69 220.64-6.69 218.98-12.01 207.6-12.01 205.94-6.69 209.85-6.69 209.85 0 195.81 0 195.81-6.69 198.57-6.69 208.65-37.01 218.44-37.01 228.31-6.69 230.99-6.69 230.99 0 216.95 0ZM213.24-30.3L209.53-18.26 217-18.26 213.24-30.3ZM234.31-30.3L234.31-37.01 250.15-37.01 250.15-30.3 246.25-30.3 246.25-6.69 254.3-6.69Q254.62-6.69 254.93-6.87 255.23-7.06 255.46-7.35 255.7-7.64 255.84-7.98 255.99-8.33 255.99-8.64L255.99-8.64 255.99-13.6 263.9-13.6 263.9 0 234.31 0 234.31-6.69 238.14-6.69 238.14-30.3 234.31-30.3ZM267.17-30.3L267.17-37.01 283.01-37.01 283.01-30.3 279.11-30.3 279.11-19.53 290.95-29.86 290.95-37.01 303.57-37.01 303.57-29.81 300.81-29.81 288.48-19.21 300.3-7.25 303.3-7.25 303.3 0 291.02 0 291.02-7.25 279.11-19.17 279.11-6.69 283.01-6.69 283.01 0 267.17 0 267.17-6.69 271-6.69 271-30.3 267.17-30.3Z" opacity="1" transform="matrix(1,0,0,1,0,0)" fill="#ffffff" class="undefined-text-0" data-fill-palette-color="primary" id="text-0"></path></svg></g></svg></g><g transform="matrix(1,0,0,1,75.54432,61.86472465774628)"><svg viewBox="0 0 244.43135999999998 23.428158333085282" height="23.428158333085282" width="244.43135999999998"><g transform="matrix(1,0,0,1,0,0)"><svg width="244.43135999999998" viewBox="3.5 -31.95 335.92 32.2" height="23.428158333085282" data-palette-color="#ffffff"><path d="M6.15-31.75Q7.1-31.75 7.88-31.25 8.65-30.75 8.8-29.5L8.8-29.5Q9.4-25.55 9.58-21.63 9.75-17.7 9.75-12.75L9.75-12.75Q9.75-10.65 9.4-5.1L9.4-5.1Q11.6-4.9 12.8-4.9L12.8-4.9Q13.65-4.9 16.65-5.15L16.65-5.15Q18.4-5.4 19.7-5.4L19.7-5.4Q20.9-5.4 21.9-5.18 22.9-4.95 23.95-4.45L23.95-4.45Q25-3.85 25-2.6L25-2.6Q25-1.6 24.38-0.8 23.75 0 22.9 0L22.9 0Q22.3 0 21-0.2L21-0.2Q18.65-0.55 16.5-0.55L16.5-0.55Q15.8-0.55 14.93-0.48 14.05-0.4 13.65-0.4L13.65-0.4Q12.45-0.25 11.25-0.25L11.25-0.25Q8.8-0.25 6.85-0.5L6.85-0.5Q5.85-0.6 4.85-1.28 3.85-1.95 3.85-3.25L3.85-3.25Q3.85-4 4.05-7.1L4.05-7.1Q4.4-12.25 4.4-14.95L4.4-14.95Q4.4-17.05 4.2-19.35 4-21.65 3.95-22.25L3.95-22.25Q3.5-26.5 3.5-29.25L3.5-29.25Q3.5-30.55 4.13-31.15 4.75-31.75 6.15-31.75L6.15-31.75ZM49.35-6.8Q50.3-6.8 50.77-6.08 51.25-5.35 51.25-4.5L51.25-4.5Q51.25-3.45 50.92-3.03 50.6-2.6 49.7-2.15L49.7-2.15Q47.6-1.15 44.5-0.55 41.4 0.05 37.85 0.05L37.85 0.05Q33.4 0.05 31.32-1.45 29.25-2.95 28.77-5.08 28.3-7.2 28.3-10.65L28.3-10.65Q28.3-14.35 28.6-17.93 28.9-21.5 29.65-27.05L29.65-27.05Q30-29.45 31.55-30.53 33.1-31.6 34.95-31.6L34.95-31.6Q36.5-31.6 40-31.7L40-31.7 44.35-31.75Q47.05-31.75 48.25-31.6L48.25-31.6Q49.75-31.3 50.47-30.93 51.2-30.55 51.2-29.65L51.2-29.65Q51.2-28.65 50.52-27.7 49.85-26.75 48.5-26.75L48.5-26.75Q46.95-26.75 44.05-26.95L44.05-26.95Q41.15-27.15 39.7-27.15L39.7-27.15Q38.45-27.15 37.25-27L37.25-27Q35.85-26.9 35.25-26.65 34.65-26.4 34.55-25.8L34.55-25.8Q33.85-20.65 33.85-18.2L33.85-18.2Q35-18.05 36.1-18.05L36.1-18.05Q37.5-18.05 39.1-18.2 40.7-18.35 41.15-18.4L41.15-18.4Q43.8-18.65 45.7-18.65L45.7-18.65Q46.8-18.65 47.37-18.25 47.95-17.85 47.95-17.15L47.95-17.15Q47.95-16.05 47.37-15.45 46.8-14.85 45.35-14.55L45.35-14.55Q43.6-14.2 41.02-14 38.45-13.8 36-13.8L36-13.8Q35.15-13.8 33.65-13.9L33.65-13.9Q33.5-10.85 33.5-8.25L33.5-8.25Q33.5-4.7 38.2-4.7L38.2-4.7Q40.7-4.7 42.35-5.05 44-5.4 46.15-6.05L46.15-6.05Q48.15-6.8 49.35-6.8L49.35-6.8ZM53.39-29.15Q53.39-31.3 56.55-31.3L56.55-31.3Q57.89-31.3 61.7-31.2L61.7-31.2Q65.89-31 68.05-31L68.05-31Q69.8-31 72.3-31.2L72.3-31.2Q74-31.3 74.44-31.3L74.44-31.3Q77.19-31.2 79.09-30.3L79.09-30.3Q79.64-30.05 80-29.7 80.34-29.35 80.34-28.55L80.34-28.55Q80.34-27.45 79.64-26.68 78.94-25.9 77.94-25.9L77.94-25.9Q76.84-25.9 74.75-26.2L74.75-26.2Q72.89-26.55 71.5-26.55L71.5-26.55Q70.14-26.55 69.44-26.5L69.44-26.5Q69.3-24.85 69.3-18.6L69.3-18.6Q69.3-11.15 69.75-3.5L69.75-3.5 69.84-2.05Q69.84 0 67.5 0L67.5 0Q65.64 0 65-0.88 64.34-1.75 64.34-3.55L64.34-3.55Q64.34-7.1 64.14-12.4L64.14-12.4Q63.95-16.8 63.95-18.65L63.95-18.65Q63.95-19.9 64.25-26.3L64.25-26.3 58.39-26.25Q55.59-26.25 54.49-26.78 53.39-27.3 53.39-29.15L53.39-29.15ZM92.69-29.15Q92.69-31.3 95.84-31.3L95.84-31.3Q97.19-31.3 100.99-31.2L100.99-31.2Q105.19-31 107.34-31L107.34-31Q109.09-31 111.59-31.2L111.59-31.2Q113.29-31.3 113.74-31.3L113.74-31.3Q116.49-31.2 118.39-30.3L118.39-30.3Q118.94-30.05 119.29-29.7 119.64-29.35 119.64-28.55L119.64-28.55Q119.64-27.45 118.94-26.68 118.24-25.9 117.24-25.9L117.24-25.9Q116.14-25.9 114.04-26.2L114.04-26.2Q112.19-26.55 110.79-26.55L110.79-26.55Q109.44-26.55 108.74-26.5L108.74-26.5Q108.59-24.85 108.59-18.6L108.59-18.6Q108.59-11.15 109.04-3.5L109.04-3.5 109.14-2.05Q109.14 0 106.79 0L106.79 0Q104.94 0 104.29-0.88 103.64-1.75 103.64-3.55L103.64-3.55Q103.64-7.1 103.44-12.4L103.44-12.4Q103.24-16.8 103.24-18.65L103.24-18.65Q103.24-19.9 103.54-26.3L103.54-26.3 97.69-26.25Q94.89-26.25 93.79-26.78 92.69-27.3 92.69-29.15L92.69-29.15ZM146.59-0.75Q145.94-1.6 145.49-2.63 145.04-3.65 144.54-5.1L144.54-5.1Q144.44-5.35 143.96-6.6 143.49-7.85 142.89-8.75L142.89-8.75Q139.74-8.3 137.74-8.3L137.74-8.3Q136.64-8.3 135.31-8.38 133.99-8.45 133.34-8.45L133.34-8.45Q130.84-8.65 129.34-8.65L129.34-8.65Q128.74-7.85 128.31-6.95 127.89-6.05 127.24-4.25L127.24-4.25Q126.34-1.65 125.69-0.55L125.69-0.55Q125.24 0.2 123.94 0.2L123.94 0.2Q122.84 0.2 121.91-0.28 120.99-0.75 120.99-1.6L120.99-1.6Q121.39-3.5 122.26-5.63 123.14-7.75 124.79-11.3L124.79-11.3 126.79-16.2Q128.44-20.4 129.81-23.4 131.19-26.4 133.44-30.5L133.44-30.5Q133.74-31.1 134.44-31.53 135.14-31.95 135.99-31.95L135.99-31.95Q136.94-31.95 137.36-31.83 137.79-31.7 138.04-31.43 138.29-31.15 138.79-30.3L138.79-30.3Q140.49-27.65 141.71-24.85 142.94-22.05 144.84-17.1L144.84-17.1 145.89-14.45Q147.29-10.85 148.31-8.43 149.34-6 150.59-4L150.59-4Q151.39-2.7 151.39-2.2L151.39-2.2Q151.39-1 150.66-0.38 149.94 0.25 148.79 0.25L148.79 0.25Q147.34 0.25 146.59-0.75L146.59-0.75ZM141.44-12.85Q140.64-14.55 139.14-18.75L139.14-18.75Q137.59-23.25 136.04-25.9L136.04-25.9Q135.09-23.5 133.24-19.7L133.24-19.7Q131.99-17.35 130.39-12.9L130.39-12.9Q133.59-12.5 137.29-12.5L137.29-12.5Q139.94-12.5 141.44-12.85L141.44-12.85ZM158.34-31.75Q159.28-31.75 160.06-31.25 160.84-30.75 160.99-29.5L160.99-29.5Q161.59-25.55 161.76-21.63 161.94-17.7 161.94-12.75L161.94-12.75Q161.94-10.65 161.59-5.1L161.59-5.1Q163.78-4.9 164.99-4.9L164.99-4.9Q165.84-4.9 168.84-5.15L168.84-5.15Q170.59-5.4 171.88-5.4L171.88-5.4Q173.09-5.4 174.09-5.18 175.09-4.95 176.13-4.45L176.13-4.45Q177.19-3.85 177.19-2.6L177.19-2.6Q177.19-1.6 176.56-0.8 175.94 0 175.09 0L175.09 0Q174.49 0 173.19-0.2L173.19-0.2Q170.84-0.55 168.69-0.55L168.69-0.55Q167.99-0.55 167.11-0.48 166.24-0.4 165.84-0.4L165.84-0.4Q164.63-0.25 163.44-0.25L163.44-0.25Q160.99-0.25 159.03-0.5L159.03-0.5Q158.03-0.6 157.03-1.28 156.03-1.95 156.03-3.25L156.03-3.25Q156.03-4 156.24-7.1L156.24-7.1Q156.59-12.25 156.59-14.95L156.59-14.95Q156.59-17.05 156.38-19.35 156.19-21.65 156.13-22.25L156.13-22.25Q155.69-26.5 155.69-29.25L155.69-29.25Q155.69-30.55 156.31-31.15 156.94-31.75 158.34-31.75L158.34-31.75ZM207.98-3.8Q208.48-3.55 208.76-3.15 209.03-2.75 209.03-2L209.03-2Q209.03-1.05 208.31-0.48 207.58 0.1 206.63 0.1L206.63 0.1Q205.53 0.1 204.13-0.45L204.13-0.45Q201.33-1.7 198.66-5.08 195.98-8.45 192.23-14.8L192.23-14.8Q189.38-12.6 186.43-10.7L186.43-10.7Q186.43-9.65 186.51-8.28 186.58-6.9 186.58-6.25L186.58-6.25Q186.68-3.35 186.68-2.4L186.68-2.4Q186.68-1.55 186.13-0.78 185.58 0 184.48 0L184.48 0Q182.88 0 182.18-0.53 181.48-1.05 181.33-2.05L181.33-2.05Q180.93-4.55 180.93-6.85L180.93-6.85Q180.93-9.45 181.33-14.35L181.33-14.35Q181.73-19.05 181.73-21.4L181.73-21.4Q181.73-22.3 181.63-24L181.63-24Q181.58-25.35 181.33-26.5L181.33-26.5Q181.13-28.1 181.13-28.75L181.13-28.75Q181.13-30.35 181.83-31.05 182.53-31.75 183.98-31.75L183.98-31.75Q185.08-31.75 185.81-31.13 186.53-30.5 186.63-29.45L186.63-29.45Q186.88-25.2 186.88-22.9L186.88-22.9Q186.83-21.65 186.71-19.33 186.58-17 186.48-16.4L186.48-16.4Q188.18-17.35 193.16-21.88 198.13-26.4 200.23-29L200.23-29 200.88-29.75Q201.68-30.8 202.23-31.2 202.78-31.6 203.73-31.6L203.73-31.6Q204.68-31.6 205.46-30.98 206.23-30.35 206.23-29.5L206.23-29.5Q206.23-27.85 204.53-26.15L204.53-26.15Q200.38-21.85 196.23-18.15L196.23-18.15Q202.08-7.2 207.98-3.8L207.98-3.8ZM221.18-29.15Q221.18-31.3 224.33-31.3L224.33-31.3Q225.68-31.3 229.48-31.2L229.48-31.2Q233.68-31 235.83-31L235.83-31Q237.58-31 240.08-31.2L240.08-31.2Q241.78-31.3 242.23-31.3L242.23-31.3Q244.98-31.2 246.88-30.3L246.88-30.3Q247.43-30.05 247.78-29.7 248.13-29.35 248.13-28.55L248.13-28.55Q248.13-27.45 247.43-26.68 246.73-25.9 245.73-25.9L245.73-25.9Q244.63-25.9 242.53-26.2L242.53-26.2Q240.68-26.55 239.28-26.55L239.28-26.55Q237.93-26.55 237.23-26.5L237.23-26.5Q237.08-24.85 237.08-18.6L237.08-18.6Q237.08-11.15 237.53-3.5L237.53-3.5 237.63-2.05Q237.63 0 235.28 0L235.28 0Q233.43 0 232.78-0.88 232.13-1.75 232.13-3.55L232.13-3.55Q232.13-7.1 231.93-12.4L231.93-12.4Q231.73-16.8 231.73-18.65L231.73-18.65Q231.73-19.9 232.03-26.3L232.03-26.3 226.18-26.25Q223.38-26.25 222.28-26.78 221.18-27.3 221.18-29.15L221.18-29.15ZM272.78-6.8Q273.73-6.8 274.2-6.08 274.68-5.35 274.68-4.5L274.68-4.5Q274.68-3.45 274.35-3.03 274.03-2.6 273.13-2.15L273.13-2.15Q271.03-1.15 267.93-0.55 264.82 0.05 261.28 0.05L261.28 0.05Q256.82 0.05 254.75-1.45 252.68-2.95 252.2-5.08 251.73-7.2 251.73-10.65L251.73-10.65Q251.73-14.35 252.03-17.93 252.33-21.5 253.08-27.05L253.08-27.05Q253.43-29.45 254.98-30.53 256.53-31.6 258.38-31.6L258.38-31.6Q259.93-31.6 263.43-31.7L263.43-31.7 267.78-31.75Q270.48-31.75 271.68-31.6L271.68-31.6Q273.18-31.3 273.9-30.93 274.63-30.55 274.63-29.65L274.63-29.65Q274.63-28.65 273.95-27.7 273.28-26.75 271.93-26.75L271.93-26.75Q270.38-26.75 267.48-26.95L267.48-26.95Q264.57-27.15 263.13-27.15L263.13-27.15Q261.88-27.15 260.68-27L260.68-27Q259.28-26.9 258.68-26.65 258.07-26.4 257.98-25.8L257.98-25.8Q257.28-20.65 257.28-18.2L257.28-18.2Q258.43-18.05 259.53-18.05L259.53-18.05Q260.93-18.05 262.53-18.2 264.13-18.35 264.57-18.4L264.57-18.4Q267.23-18.65 269.13-18.65L269.13-18.65Q270.23-18.65 270.8-18.25 271.38-17.85 271.38-17.15L271.38-17.15Q271.38-16.05 270.8-15.45 270.23-14.85 268.78-14.55L268.78-14.55Q267.03-14.2 264.45-14 261.88-13.8 259.43-13.8L259.43-13.8Q258.57-13.8 257.07-13.9L257.07-13.9Q256.93-10.85 256.93-8.25L256.93-8.25Q256.93-4.7 261.63-4.7L261.63-4.7Q264.13-4.7 265.78-5.05 267.43-5.4 269.57-6.05L269.57-6.05Q271.57-6.8 272.78-6.8L272.78-6.8ZM304.27-27.75Q305.02-26.85 305.32-26.3 305.62-25.75 305.62-25.25L305.62-25.25Q305.62-24.65 304.85-23.85 304.07-23.05 303.32-23.05L303.32-23.05Q302.32-23.05 301.72-23.35 301.12-23.65 300.72-24.3L300.72-24.3Q299.92-25.5 298.77-26.38 297.62-27.25 295.17-27.25L295.17-27.25Q293.07-27.25 290.4-26.3 287.72-25.35 286.57-23.95L286.57-23.95Q285.57-22.7 284.85-20.15 284.12-17.6 284.12-15.2L284.12-15.2Q284.12-12.3 285.4-9.88 286.67-7.45 289.1-6 291.52-4.55 294.92-4.55L294.92-4.55Q296.77-4.55 298.75-5.28 300.72-6 302.17-7.65L302.17-7.65 302.12-7.65Q303.02-8.6 304.37-8.6L304.37-8.6Q305.17-8.6 305.9-7.9 306.62-7.2 306.62-6.5L306.62-6.5Q306.62-5.75 306.4-5.18 306.17-4.6 305.57-3.9L305.57-3.9Q303.52-1.6 300.72-0.75 297.92 0.1 294.02 0.1L294.02 0.1Q290.57 0.1 287.05-1.55 283.52-3.2 281.62-5.55L281.62-5.55Q280.62-7 279.7-9.73 278.77-12.45 278.77-14.15L278.77-14.15Q278.77-18.5 280.1-22.43 281.42-26.35 284.07-28.7L284.07-28.7Q285.82-30.3 289.12-31.1 292.42-31.9 295.17-31.9L295.17-31.9Q298.52-31.9 300.45-30.98 302.37-30.05 304.27-27.75L304.27-27.75ZM334.07-17.9Q334.02-18.7 334.02-20.3L334.02-20.3 334.02-22.2Q334.02-24.1 333.92-25.05L333.92-25.05Q333.82-25.85 333.82-29.2L333.82-29.2Q333.82-30.4 334.55-31.08 335.27-31.75 336.52-31.75L336.52-31.75Q338.12-31.75 338.67-31.05 339.22-30.35 339.22-28.75L339.22-28.75 339.22-26.85 339.17-21.35Q339.12-19.75 339.12-16.55L339.12-16.55 339.17-12.45Q339.22-11.5 339.22-9.8L339.22-9.8Q339.22-8.45 339.32-5.95L339.32-5.95Q339.42-3.65 339.42-2.5L339.42-2.5Q339.42-1.55 338.9-0.75 338.37 0.05 337.47 0.05L337.47 0.05Q333.97 0.05 333.97-2.3L333.97-2.3Q333.97-3.6 334.07-5.2L334.07-5.2Q334.17-6.35 334.17-8.7L334.17-8.7Q334.17-10.35 334.07-13.45L334.07-13.45Q331.72-13.25 325.97-13.25L325.97-13.25Q322.37-13.25 320.37-13.28 318.37-13.3 317.47-13.5L317.47-13.5 317.42-7.75Q317.42-7.2 317.67-4.8L317.67-4.8Q317.92-3.2 317.92-2L317.92-2Q317.92-1.25 317.05-0.58 316.17 0.1 315.42 0.1L315.42 0.1Q313.62 0.1 312.97-0.78 312.32-1.65 312.32-3.45L312.32-3.45 312.27-7.4Q312.22-8.1 312.22-9.35L312.22-9.35Q312.22-11.2 312.12-14.4L312.12-14.4Q312.02-17.3 312.02-18.6L312.02-18.6Q312.02-20.55 312.12-24.05L312.12-24.05Q312.22-27.35 312.22-28.95L312.22-28.95Q312.22-30.55 313.02-31.1 313.82-31.65 314.82-31.65L314.82-31.65Q317.62-31.65 317.62-29.8L317.62-29.8Q317.62-26.5 317.47-23.5L317.47-23.5Q317.37-19.7 317.37-17.95L317.37-17.95Q318.82-17.6 320.42-17.5 322.02-17.4 324.92-17.4L324.92-17.4Q330.82-17.4 334.07-17.9L334.07-17.9Z" opacity="1" transform="matrix(1,0,0,1,0,0)" fill="#ffffff" class="undefined-text-1" data-fill-palette-color="secondary" id="text-1"></path></svg></g></svg></g></svg></g></svg></g><g transform="matrix(1,0,0,1,75.54432,0)"><svg viewBox="0 0 244.43135999999998 114.49802331453414" height="114.49802331453414" width="244.43135999999998"><g><svg xmlns="http://www.w3.org/2000/svg" xmlns:xlink="http://www.w3.org/1999/xlink" xml:space="preserve" style="shape-rendering:geometricPrecision;text-rendering:geometricPrecision;image-rendering:optimizeQuality;" viewBox="0.0000020000000000575113 0.0000027841116459863258 14.727499 7.381952827609914" x="8" y="0" fill-rule="evenodd" clip-rule="evenodd" width="228.43135999999998" height="114.49802331453414" class="icon-icon-0" data-fill-palette-color="accent" id="icon-0"><g fill="#ffffff" data-fill-palette-color="accent"><path class="" d="M1.757 3.091c-0.313 0.444-0.296 1.331-0.417 1.95-0.153 0.784-0.711 1.203-1.34 1.534 0.188-0.771 0.348-1.542 0.412-2.313 0.078-0.953-0.06-0.891 0.767-1.575 1.159-0.961 3.04-1.741 5.848-2.29 2.456-0.406 5.049-0.453 7.701-0.351-0.89 1.809-3.733 1.961-7.203 1.581-1.811 0.02-3.495-0.488-5.768 1.464z m8.33 2.781c-3.895 2.038-7.803-2.284-9.165 0.688 2.104-1.831 5.079 3.183 9.165-0.688z m2.489-2.547c-4.49 2.72-9.502-0.792-10.907 1.859 3.412-1.235 7.765 2.753 10.907-1.859z m0.834-1.478c-3.944 1.761-10.043-1.402-11.565 2.239 3.106-1.808 8.446 1.438 11.565-2.239z" fill="#ffffff" data-fill-palette-color="accent"></path></g></svg></g></svg></g><g><rect width="75.54432" height="4.513496511566769" y="108.98452680296737" x="319.97568" fill="#ffffff" data-fill-palette-color="accent"></rect><rect width="75.54432" height="4.513496511566769" y="108.98452680296737" x="0" fill="#ffffff" data-fill-palette-color="accent"></rect><rect width="75.54432" height="4.513496511566769" y="99.95753377983382" x="319.97568" fill="#ffffff" data-fill-palette-color="accent"></rect><rect width="75.54432" height="4.513496511566769" y="99.95753377983382" x="0" fill="#ffffff" data-fill-palette-color="accent"></rect></g></svg></g><defs></defs></svg><rect width="395.52" height="211.60634219951953" fill="none" stroke="none" visibility="hidden"></rect></g></svg></g></svg>