<svg xmlns="http://www.w3.org/2000/svg" version="1.1" xmlns:xlink="http://www.w3.org/1999/xlink" xmlns:svgjs="http://svgjs.dev/svgjs" width="1000" height="1000" viewBox="0 0 1000 1000"><rect width="1000" height="1000" fill="#000000"></rect><g transform="matrix(0.7,0,0,0.7,149.57575757575756,400.93943506287985)"><svg viewBox="0 0 396 112" data-background-color="#ffffff" preserveAspectRatio="xMidYMid meet" height="282" width="1000" xmlns="http://www.w3.org/2000/svg" xmlns:xlink="http://www.w3.org/1999/xlink"><g id="tight-bounds" transform="matrix(1,0,0,1,0.2400000000000091,0.20457585084832886)"><svg viewBox="0 0 395.52 111.59084829830333" height="111.59084829830333" width="395.52"><g><svg viewBox="0 0 576.438524619094 162.63466816865673" height="111.59084829830333" width="395.52"><g transform="matrix(1,0,0,1,180.91852461909397,22.477005513902633)"><svg viewBox="0 0 395.52 117.68065714085147" height="117.68065714085147" width="395.52"><g><svg viewBox="0 0 395.52 117.68065714085147" height="117.68065714085147" width="395.52"><g><svg viewBox="0 0 395.52 77.44902679830747" height="77.44902679830747" width="395.52"><g transform="matrix(1,0,0,1,0,0)"><svg width="395.52" viewBox="0.55 -41.05 212.67999999999998 41.65" height="77.44902679830747" data-palette-color="#0063db"><path d="M15.65 0L6.65 0 6.65-33.85 0.55-33.85 0.55-40.5 21.7-40.5 21.7-33.85 15.65-33.85 15.65 0ZM43.55 0L25.25 0 25.25-40.5 43.45-40.5 43.45-34.4 34.2-34.4 34.2-24.35 41.25-24.35 41.25-18.15 34.2-18.15 34.2-6.05 43.55-6.05 43.55 0ZM59.2 0.6L59.2 0.6Q54.59 0.6 51.92-1.07 49.24-2.75 48.14-5.78 47.05-8.8 47.05-12.9L47.05-12.9 47.05-27.5Q47.05-31.7 48.14-34.73 49.24-37.75 51.92-39.4 54.59-41.05 59.2-41.05L59.2-41.05Q63.7-41.05 66.22-39.58 68.75-38.1 69.8-35.45 70.84-32.8 70.84-29.35L70.84-29.35 70.84-25.85 62.09-25.85 62.09-29.9Q62.09-31.1 61.97-32.2 61.84-33.3 61.25-34.02 60.64-34.75 59.2-34.75L59.2-34.75Q57.8-34.75 57.12-34 56.45-33.25 56.27-32.13 56.09-31 56.09-29.75L56.09-29.75 56.09-10.7Q56.09-9.35 56.32-8.22 56.55-7.1 57.22-6.43 57.89-5.75 59.2-5.75L59.2-5.75Q60.59-5.75 61.2-6.48 61.8-7.2 61.95-8.35 62.09-9.5 62.09-10.7L62.09-10.7 62.09-14.95 70.84-14.95 70.84-11.45Q70.84-8 69.82-5.28 68.8-2.55 66.27-0.98 63.75 0.6 59.2 0.6ZM84.84 0L75.89 0 75.89-40.5 84.84-40.5 84.84-24.1 91.09-24.1 91.09-40.5 100.09-40.5 100.09 0 91.09 0 91.09-17.7 84.84-17.7 84.84 0ZM131.69 0L122.69 0 122.69-33.85 116.59-33.85 116.59-40.5 137.74-40.5 137.74-33.85 131.69-33.85 131.69 0ZM145.99 0L137.54 0 145.19-40.5 155.39-40.5 162.94 0 154.69 0 153.34-8.55 147.39-8.55 145.99 0ZM150.34-29.7L148.19-13.9 152.49-13.9 150.34-29.7ZM184.88 0L166.63 0 166.63-40.5 175.58-40.5 175.58-6.05 184.88-6.05 184.88 0ZM197.33 0L188.38 0 188.38-40.5 197.33-40.5 197.33-23.95 204.13-40.5 212.88-40.5 205.38-22.2 213.23 0 204.13 0 198.28-17.9 197.33-16.3 197.33 0Z" opacity="1" transform="matrix(1,0,0,1,0,0)" fill="#ffffff" class="undefined-text-0" data-fill-palette-color="primary" id="text-0"></path></svg></g></svg></g><g transform="matrix(1,0,0,1,0,95.73288324874471)"><svg viewBox="0 0 232.209792 21.947773892106756" height="21.947773892106756" width="232.209792"><g transform="matrix(1,0,0,1,0,0)"><svg width="232.209792" viewBox="1.61 -36.06 386.90999999999997 36.57" height="21.947773892106756" data-palette-color="#0063db"><path d="M27.88 0L1.61 0 1.61-3.76 5.49-4.49 5.49-31.03 1.61-31.76 1.61-35.55 5.49-35.55 11.65-35.55 15.82-35.55 15.82-31.76 11.65-31.03 11.65-4.71 22.75-4.71 23.17-10.08 27.88-10.08 27.88 0ZM58.69 0L31 0 31-3.76 34.89-4.49 34.89-31.03 31-31.76 31-35.55 58.08-35.55 58.08-26.39 53.29-26.39 52.88-30.81 41.04-30.81 41.04-20.75 53.51-20.75 53.51-15.99 41.04-15.99 41.04-4.69 53.54-4.69 53.95-9.2 58.69-9.2 58.69 0ZM85.76 0L71.85 0 71.85-3.76 75.73-4.49 75.73-30.83 68.57-30.83 68.04-26.29 63.42-26.29 63.42-35.55 94.21-35.55 94.21-26.29 89.57-26.29 89.03-30.83 81.88-30.83 81.88-4.49 85.76-3.76 85.76 0ZM132.17 0L118.25 0 118.25-3.76 122.13-4.49 122.13-30.83 114.98-30.83 114.44-26.29 109.83-26.29 109.83-35.55 140.62-35.55 140.62-26.29 135.98-26.29 135.44-30.83 128.29-30.83 128.29-4.49 132.17-3.76 132.17 0ZM149.87 0L138.56 0 138.56-3.76 141.15-4.13 152.92-35.55 158.9-35.55 170.52-4.13 173.11-3.76 173.11 0 161.8 0 161.8-3.76 164.34-4.22 162.46-9.81 149.23-9.81 147.3-4.22 149.87-3.76 149.87 0ZM155.46-27.64L150.84-14.53 160.88-14.53 156.26-27.69 155.94-28.64 155.8-28.64 155.46-27.64ZM202.28 0L176.01 0 176.01-3.76 179.89-4.49 179.89-31.03 176.01-31.76 176.01-35.55 179.89-35.55 186.04-35.55 190.22-35.55 190.22-31.76 186.04-31.03 186.04-4.71 197.15-4.71 197.57-10.08 202.28-10.08 202.28 0ZM235.24-31.1L214.44-9.38 211.21-13.09 228.4-31.35 228.47-31.45 225.32-31.76 225.32-35.55 238.58-35.55 238.58-31.76 235.24-31.1ZM219.2 0L205.4 0 205.4-3.76 209.28-4.49 209.28-31.03 205.4-31.76 205.4-35.55 219.2-35.55 219.2-31.76 215.44-31.03 215.44-4.49 219.2-3.76 219.2 0ZM239.85 0L226.11 0 226.11-3.76 229.25-4.08 229.25-4.1 219.88-17.04 223.74-21.36 236.46-4.37 239.85-3.76 239.85 0ZM277.37 0L263.45 0 263.45-3.76 267.34-4.49 267.34-30.83 260.18-30.83 259.65-26.29 255.03-26.29 255.03-35.55 285.82-35.55 285.82-26.29 281.18-26.29 280.64-30.83 273.49-30.83 273.49-4.49 277.37-3.76 277.37 0ZM316.77 0L289.09 0 289.09-3.76 292.97-4.49 292.97-31.03 289.09-31.76 289.09-35.55 316.16-35.55 316.16-26.39 311.38-26.39 310.96-30.81 299.12-30.81 299.12-20.75 311.6-20.75 311.6-15.99 299.12-15.99 299.12-4.69 311.62-4.69 312.04-9.2 316.77-9.2 316.77 0ZM337.57 0.51L337.57 0.51Q332.32 0.51 328.6-1.72 324.87-3.96 322.91-7.97 320.94-11.99 320.94-17.31L320.94-17.31 320.94-18.21Q320.94-23.41 322.9-27.43 324.85-31.45 328.49-33.75 332.13-36.06 337.18-36.06L337.18-36.06Q340.72-36.06 343.75-35.01 346.77-33.96 349.02-32.06L349.02-32.06 349.02-23.85 344.33-23.85 343.7-29.35Q342.89-29.93 341.92-30.35 340.94-30.76 339.78-30.98 338.62-31.2 337.25-31.2L337.25-31.2Q334.05-31.2 331.77-29.59 329.49-27.98 328.29-25.07 327.1-22.17 327.1-18.26L327.1-18.26 327.1-17.31Q327.1-13.26 328.37-10.34 329.64-7.42 332.02-5.86 334.4-4.3 337.72-4.3L337.72-4.3Q339.33-4.3 340.9-4.68 342.48-5.05 343.67-5.66L343.67-5.66 344.33-10.64 348.97-10.64 348.97-2.49Q346.92-1.15 343.95-0.32 340.99 0.51 337.57 0.51ZM366.84 0L352.92 0 352.92-3.76 356.81-4.49 356.81-31.03 352.92-31.76 352.92-35.55 366.84-35.55 366.84-31.76 362.96-31.03 362.96-19.95 378.51-19.95 378.51-31.03 374.63-31.76 374.63-35.55 378.51-35.55 384.64-35.55 388.52-35.55 388.52-31.76 384.64-31.03 384.64-4.49 388.52-3.76 388.52 0 374.63 0 374.63-3.76 378.51-4.49 378.51-15.16 362.96-15.16 362.96-4.49 366.84-3.76 366.84 0Z" opacity="1" transform="matrix(1,0,0,1,0,0)" fill="#ffffff" class="undefined-text-1" data-fill-palette-color="secondary" id="text-1"></path></svg></g></svg></g></svg></g></svg></g><g><svg viewBox="0 0 162.63466816865673 162.63466816865673" height="162.63466816865673" width="162.63466816865673"><g><svg xmlns="http://www.w3.org/2000/svg" xmlns:xlink="http://www.w3.org/1999/xlink" version="1.0" x="0" y="0" viewBox="1 1 48 48" enable-background="new 0 0 50 50" xml:space="preserve" height="162.63466816865673" width="162.63466816865673" class="icon-icon-0" data-fill-palette-color="accent" id="icon-0"><g fill="#d90000" data-fill-palette-color="accent"><g fill="#d90000" data-fill-palette-color="accent"><rect x="1" y="1" fill="#ffffff" width="23" height="5" data-fill-palette-color="accent"></rect><rect x="1" y="10" fill="#ffffff" width="23" height="5" data-fill-palette-color="accent"></rect><rect x="1" y="19" fill="#ffffff" width="23" height="5" data-fill-palette-color="accent"></rect></g><g fill="#d90000" data-fill-palette-color="accent"><rect x="26" y="26" fill="#ffffff" width="23" height="5" data-fill-palette-color="accent"></rect><rect x="26" y="35" fill="#ffffff" width="23" height="5" data-fill-palette-color="accent"></rect><rect x="26" y="44" fill="#ffffff" width="23" height="5" data-fill-palette-color="accent"></rect></g><g fill="#d90000" data-fill-palette-color="accent"><rect x="19" y="26" fill="#ffffff" width="5" height="23" data-fill-palette-color="accent"></rect><rect x="10" y="26" fill="#ffffff" width="5" height="23" data-fill-palette-color="accent"></rect><rect x="1" y="26" fill="#ffffff" width="5" height="23" data-fill-palette-color="accent"></rect></g><g fill="#d90000" data-fill-palette-color="accent"><rect x="44" y="1" fill="#ffffff" width="5" height="23" data-fill-palette-color="accent"></rect><rect x="35" y="1" fill="#ffffff" width="5" height="23" data-fill-palette-color="accent"></rect><rect x="26" y="1" fill="#ffffff" width="5" height="23" data-fill-palette-color="accent"></rect></g></g></svg></g></svg></g></svg></g><defs></defs></svg><rect width="395.52" height="111.59084829830333" fill="none" stroke="none" visibility="hidden"></rect></g></svg></g></svg>